<svg xmlns="http://www.w3.org/2000/svg" width="1024" height="1024" viewBox="0 0 1024 1024"><rect width="1024" height="1024" fill="#000000"/><g transform="translate(224.63 182.00) scale(1.0030)"><g fill="#FFFFFF"><g transform="translate(-43.20 580.32)"><path transform="translate(0.00 0.00) scale(0.72 -0.72)" d="M371 -107Q280 -107 209.5 -70.5Q139 -34 99.5 37.5Q60 109 60 213Q60 275 76 337Q92 399 119.5 456Q147 513 181 561Q166 621 166 691Q166 744 178 792Q182 806 192 806Q200 806 199 796Q196 776 194 753.5Q192 731 192 700Q192 642 203 590Q213 603 223 614Q264 659 320 698.5Q376 738 444.5 762Q513 786 590 786Q662 786 722 759.5Q782 733 818.5 683.5Q855 634 855 564Q855 520 831.5 474Q808 428 764.5 389.5Q721 351 659.5 327Q598 303 522 303Q422 303 339 347Q256 391 210 481Q170 410 151 337Q132 264 132 198Q132 102 164 42Q196 -18 252.5 -46.5Q309 -75 382 -75Q512 -75 610.5 -9.5Q709 56 773 193Q785 193 785 184Q723 36 615.5 -35.5Q508 -107 371 -107ZM253 548Q240 530 228 511Q263 429 335 379Q407 329 516 329Q585 329 639.5 350Q694 371 731.5 406Q769 441 789 483.5Q809 526 809 569Q809 622 780.5 662Q752 702 703 724.5Q654 747 592 747Q530 747 467.5 721Q405 695 349.5 650Q294 605 253 548Z"/></g></g></g></svg>